<svg xmlns="http://www.w3.org/2000/svg" xmlns:xlink="http://www.w3.org/1999/xlink" fill="#DB0000" height="800px" width="800px" version="1.1" viewBox="0 0 230.307 230.307" enable-background="new 0 0 230.307 230.307">
  <g>
    <path d="m192.523,40.039c0,0-7.179-0.229-10.574-0.229-30.625,0-62.832-38.228-62.832-38.228-1.775-2.1-4.641-2.111-6.433-0.025 0,0-32.832,38.254-63.453,38.254-3.324,0-10.969,0.104-10.969,0.104-2.75,0.037-5.155,2.318-5.155,5.068v98.258c0,2.75 0.4,7.237 0.687,9.973 0,0 0.644,5.35 2.562,10.313 2.589,6.697 6.739,13.123 11.757,19.17 6.134,7.391 13.646,14.211 21.382,20.264 13.217,10.34 26.1,18.432 35.035,23.27 2.942,1.592 7.195,4.078 11.404,4.078 4.209,0 8.47-2.391 11.395-4.041 7.295-4.117 17.395-10.604 28.651-18.834 5.874-4.295 11.778-9.064 17.225-14.219 2.761-2.613 5.405-5.324 7.869-8.121 3.54-4.021 6.708-8.223 9.316-12.57 2.323-3.871 4.203-7.857 5.505-11.936 1.317-4.125 1.204-7.647 1.204-7.647 0.234-2.739 0.01-7.231 0.01-9.981v-97.766c-0.004-2.75-1.838-5.07-4.586-5.155zm-53.54,110.467l-23.041-11.752-23.055,11.756 4.059-25.557-18.305-18.289 25.545-4.041 11.746-23.063 11.738,23.063 25.561,4.041-18.301,18.287 4.053,25.555z"/>
  </g>
</svg>